<!DOCTYPE svg PUBLIC "-//W3C//DTD SVG 1.1//EN" "http://www.w3.org/Graphics/SVG/1.1/DTD/svg11.dtd">
<!-- Uploaded to: SVG Repo, www.svgrepo.com, Transformed by: SVG Repo Mixer Tools -->
<svg fill="#fff" height="800px" width="800px" version="1.1" id="Capa_1" xmlns="http://www.w3.org/2000/svg" xmlns:xlink="http://www.w3.org/1999/xlink" viewBox="0 0 302.6 302.6" xml:space="preserve" stroke="#fff">
<g id="SVGRepo_bgCarrier" stroke-width="0"/>
<g id="SVGRepo_tracerCarrier" stroke-linecap="round" stroke-linejoin="round"/>
<g id="SVGRepo_iconCarrier"> <path d="M228.098,302.6c-0.696,0-1.396-0.091-2.081-0.275c-0.001,0-0.001-0.001-0.001-0.001c-0.008-0.002-0.012-0.001-0.021-0.006 c-0.007-0.002-0.014-0.003-0.021-0.005c-0.002-0.001-0.005-0.002-0.007-0.002c-0.005-0.002-0.01-0.003-0.015-0.004l-0.001-0.001 c-0.087-0.023-0.174-0.05-0.26-0.077l-48.694-15.213c-3.34-1.043-5.614-4.137-5.614-7.636v-71.089c0-2.545,1.211-4.938,3.261-6.445 s4.693-1.949,7.125-1.19l46.33,14.475l46.331-14.475c2.433-0.76,5.076-0.316,7.125,1.19c2.05,1.508,3.261,3.9,3.261,6.445v71.089 c0,3.499-2.274,6.593-5.614,7.636l-48.694,15.213c-0.104,0.033-0.211,0.064-0.316,0.093l0,0c-0.006,0.002-0.012,0.003-0.018,0.005 c-0.004,0.002-0.01,0.003-0.017,0.004c-0.004,0.002-0.011,0.003-0.018,0.005c-0.005,0.002-0.012,0.002-0.017,0.005 c-0.006,0.001-0.011,0.003-0.017,0.004c0,0,0,0-0.001,0c-0.609,0.158-1.229,0.242-1.848,0.254c0.001,0-0.011,0.001-0.018,0.001 c-0.003-0.001-0.012-0.001-0.016,0c-0.007-0.001-0.011-0.001-0.017,0C228.171,302.6,228.135,302.6,228.098,302.6z M236.099,229.393 v54.326l32.717-10.221v-54.326L236.099,229.393z M187.383,273.498l32.716,10.221v-54.326l-32.716-10.221V273.498z M25.784,275.849 c-1.001,0-2.02-0.189-3.005-0.589c-4.094-1.661-6.066-6.327-4.405-10.421l27.573-67.958c8.52-20.99,17.512-35.853,28.3-46.774 c14.288-14.465,31.952-21.799,52.501-21.799h36.576c45.265,0,65.933,34.747,77.541,60.884c1.793,4.038-0.026,8.765-4.064,10.559 c-4.037,1.794-8.765-0.028-10.559-4.064c-11.729-26.408-25.459-41.942-43.122-48.179l-31.621,43.331 c-1.506,2.063-3.908,3.284-6.462,3.284s-4.956-1.221-6.462-3.284l-31.651-43.371c-19.115,6.692-33.512,24.294-46.15,55.431 L33.2,270.855C31.938,273.963,28.944,275.849,25.784,275.849z M124.451,144.344l20.585,28.207l20.584-28.206 c-0.759-0.024-1.524-0.037-2.296-0.037H126.75C125.977,144.308,125.21,144.32,124.451,144.344z M145.629,106.005 c-29.224,0-53-23.776-53-53.002c0-24.076,16.135-44.454,38.159-50.889c0.104-0.034,0.208-0.066,0.314-0.097 c3.152-0.896,6.385-1.497,9.656-1.796c0.012,0.001,0.028-0.002,0.042-0.004c1.344-0.122,2.703-0.193,4.074-0.213 c0.018,0,0.036,0,0.056,0c0.019-0.002,0.041-0.001,0.061-0.001c0.018-0.001,0.034-0.001,0.051-0.001c0.016,0,0.036,0.001,0.053,0 c0.02,0,0.045-0.001,0.065-0.001c0.017-0.001,0.034-0.001,0.051,0c0.019,0,0.035-0.001,0.054-0.001c0.021-0.001,0.045-0.001,0.067,0 c0.017-0.001,0.035-0.001,0.051,0C145.403,0,145.421-0.001,145.44,0c0.023-0.001,0.043,0,0.065,0c0.018,0,0.036,0,0.054,0 c0.023-0.001,0.044,0,0.067,0c0.001,0,0.003,0,0.003,0c0.014,0,0.026,0,0.04,0c0.013,0,0.027,0.001,0.042,0c0.017,0,0.029,0,0.043,0 c0.015,0,0.028,0,0.043,0c0.015,0.001,0.031,0,0.046,0h0c27.281,0.107,49.843,20.593,52.528,47.734 c0.002,0.021,0.004,0.042,0.006,0.062c0.168,1.714,0.254,3.449,0.254,5.206C198.631,82.229,174.855,106.005,145.629,106.005z M127.382,20.821c-11.19,6.371-18.753,18.41-18.753,32.183c0,20.403,16.598,37.002,37,37.002c18.685,0,34.179-13.922,36.656-31.937 c-1.399,0.11-2.806,0.166-4.216,0.166C154.281,58.235,134.042,42.738,127.382,20.821z M142.681,16.117 c4.645,15.3,18.776,26.118,35.389,26.118c0.979,0,1.957-0.038,2.929-0.114c-4.635-15.034-18.613-26.011-35.124-26.119 c-0.007,0.001-0.024,0-0.033,0c-0.017,0.001-0.034,0-0.052-0.001c-0.019,0-0.037,0.001-0.053,0c-0.019,0-0.032-0.001-0.054,0 c-0.018,0-0.011-0.006-0.056,0c-0.017,0-0.03,0.001-0.047,0c-0.013,0-0.025,0-0.038,0c-0.019,0.001-0.039,0-0.059,0 c-0.001,0-0.001,0-0.002,0C144.537,16.004,143.605,16.043,142.681,16.117z"/> </g>
</svg>