<!DOCTYPE svg PUBLIC "-//W3C//DTD SVG 1.1//EN" "http://www.w3.org/Graphics/SVG/1.1/DTD/svg11.dtd">
<!-- Uploaded to: SVG Repo, www.svgrepo.com, Transformed by: SVG Repo Mixer Tools -->
<svg fill="#fff" height="800px" width="800px" version="1.1" id="Capa_1" xmlns="http://www.w3.org/2000/svg" xmlns:xlink="http://www.w3.org/1999/xlink" viewBox="0 0 327.447 327.447" xml:space="preserve" stroke="#fff">
<g id="SVGRepo_bgCarrier" stroke-width="0"/>
<g id="SVGRepo_tracerCarrier" stroke-linecap="round" stroke-linejoin="round"/>
<g id="SVGRepo_iconCarrier"> <path d="M227.917,327.447c-1.097,0-2.198-0.226-3.232-0.683l-62.815-27.761l-58.938,27.685c-2.479,1.165-5.381,0.98-7.69-0.488 c-2.311-1.468-3.711-4.015-3.711-6.753V216.166c-29.851-19.667-47.895-47.005-47.895-76.569V8c0-4.418,3.582-8,8-8h224.177 c4.418,0,8,3.582,8,8v131.597c0,29.564-18.043,56.901-47.894,76.568v103.282c0,2.705-1.367,5.227-3.634,6.703 C230.965,327.01,229.446,327.447,227.917,327.447z M161.768,282.212c1.102,0,2.203,0.227,3.233,0.683l54.917,24.27v-81.77 c-15.923,8.019-34.255,14.113-54.34,17.709c-0.012,0.002-0.026,0.005-0.038,0.007c-0.009,0.001-0.016,0.002-0.024,0.004 c-0.134,0.024-0.265,0.047-0.398,0.071c-0.461,0.082-0.927,0.123-1.394,0.123l0,0c-0.467,0-0.933-0.041-1.394-0.123 c-20.266-3.585-38.756-9.711-54.801-17.792v81.456l50.837-23.879C159.444,282.466,160.605,282.212,161.768,282.212z M59.635,16 v123.597c0,19.72,10.048,38.593,29.057,54.579c18.868,15.868,45.47,27.561,75.032,33.004c29.562-5.443,56.163-17.137,75.032-33.004 c19.008-15.986,29.056-34.858,29.056-54.578V16H59.635z M163.724,187.867c-4.418,0-8-3.582-8-8v-9.814h-9.902c-4.418,0-8-3.582-8-8 s3.582-8,8-8h9.902v-11.876c-20.308-3.769-35.734-21.617-35.734-43c0-24.115,19.619-43.734,43.734-43.734 c24.114,0,43.733,19.619,43.733,43.734c0,21.383-15.426,39.231-35.733,43v11.876h9.901c4.418,0,8,3.582,8,8s-3.582,8-8,8h-9.901 v9.814C171.724,184.285,168.142,187.867,163.724,187.867z M163.724,71.442c-15.293,0-27.734,12.441-27.734,27.734 s12.441,27.733,27.734,27.733c15.292,0,27.733-12.441,27.733-27.733S179.016,71.442,163.724,71.442z"/> </g>
</svg>